# xmcd
#
# Track frame offsets:
#	150
#	15725
#	30487
#	47195
#	67026
#	80326
#	93283
#	109682
#	123597
#	136365
#	150306
#	164193
#	175278
#
# Disc length: 2509 seconds
# Revision: 0
# Processed by: cddbd v1.5.2PL0 Copyright (c) Steve Scherf et al.
# Submitted via: dBpowerAMP V12.0
#
DISCID=a909cb0d
DTITLE=Feller and Hill - Brothers and Heroes
DYEAR=2017
DGENRE=Bluegrass
TTITLE0=Hammer Down
TTITLE1=Childish Love
TTITLE2=Atlanta Is Burning
TTITLE3=Rebecca Of New Orleans
TTITLE4=The Bugler
TTITLE5=Back In Baby's Arms
TTITLE6=Love is a Stranger
TTITLE7=Wake Up Little Susie
TTITLE8=Lord Help Me Decide
TTITLE9=Duncan and Brady
TTITLE10=Be a Good Girl
TTITLE11=Jerry's Breakdown
TTITLE12=Tennessee Hound Dog
EXTD=
EXTT0=
EXTT1=
EXTT2=
EXTT3=
EXTT4=
EXTT5=
EXTT6=
EXTT7=
EXTT8=
EXTT9=
EXTT10=
EXTT11=
EXTT12=
PLAYORDER=
